<svg width="50" height="50" viewBox="0 0 50 50" fill="none" xmlns="http://www.w3.org/2000/svg">
<path fill-rule="evenodd" clip-rule="evenodd" d="M23.1066 0.0527703C17.5071 0.576971 12.7077 2.57623 8.64362 6.07758C4.04599 10.0386 1.16868 15.289 0.194032 21.496C-0.0646774 23.1432 -0.0646774 26.9 0.194032 28.5473C0.96818 33.4773 2.90381 37.7166 6.05506 41.3833C10.0376 46.0174 15.6079 49.008 21.8548 49.866C23.14 50.0425 26.8363 50.0418 28.1139 49.8647C31.1656 49.4419 34.1531 48.4975 36.6613 47.1628C48.2602 40.99 53.1194 27.1327 47.9277 15.0332C44.0061 5.89388 34.7358 -0.124884 24.7757 0.00196709C24.0586 0.0110428 23.3075 0.033993 23.1066 0.0527703ZM27.0858 3.43206C34.6675 4.19494 41.3073 8.85297 44.5519 15.6851C47.4127 21.7091 47.3742 28.5753 44.4462 34.5667C39.9525 43.7621 29.5877 48.5573 19.6507 46.0383C16.6931 45.2887 13.7228 43.8083 11.3743 41.9137C6.87938 38.2874 3.97683 32.9072 3.39484 27.123C2.83652 21.5737 4.56915 15.7787 8.0923 11.4115C12.6609 5.74856 19.8967 2.70872 27.0858 3.43206ZM24.3063 11.8185C24.1342 11.8965 22.3655 13.5963 20.3758 15.596C16.4659 19.5257 16.5126 19.4649 16.6881 20.4004C16.7844 20.9139 17.4085 21.5379 17.9219 21.6342C18.8113 21.8011 18.9284 21.7236 21.2013 19.4632L23.3122 17.364L23.3398 27.34C23.3672 37.2313 23.3692 37.3183 23.5825 37.604C23.9913 38.1514 24.3247 38.3222 24.9844 38.3222C25.6441 38.3222 25.9775 38.1514 26.3862 37.604C26.5995 37.3183 26.6015 37.2313 26.629 27.34L26.6566 17.364L28.7675 19.4632C31.0404 21.7236 31.1574 21.8011 32.0468 21.6342C32.5603 21.5379 33.1843 20.9139 33.2806 20.4004C33.4562 19.465 33.5028 19.5257 29.593 15.5959C27.5728 13.5655 25.8272 11.8956 25.6397 11.8144C25.2206 11.6326 24.7137 11.6343 24.3063 11.8185Z" fill="white"/>
</svg>
